<?xml version="1.0" encoding="iso-8859-1"?>
<!-- Generator: Adobe Illustrator 18.1.1, SVG Export Plug-In . SVG Version: 6.00 Build 0)  -->
<svg version="1.1" id="Capa_1" xmlns="http://www.w3.org/2000/svg" xmlns:xlink="http://www.w3.org/1999/xlink" x="0px" y="0px"
	 viewBox="0 0 50.37 50.37" style="enable-background:new 0 0 50.37 50.37;" xml:space="preserve">
<g>
	<path style="fill:#010002;" d="M11.33,33.579H8.887V18.665h2.443V33.579z M29.65,37.911h0.979v-2.396H8.887v2.396h2.443V50.37
		h8.427c0-4.398,3.264-4.152,3.264-4.152C31.293,44.751,29.65,37.911,29.65,37.911z M41.352,31.325
		c-1.587,5.471-3.672,10.815-5.792,16.096c-1.399,3.485-7.105,1.965-5.687-1.568c1.625-4.047,3.227-8.133,4.602-12.283
		c-4.509,0.099-9.037,0.367-13.517-0.057c-2.116-0.201-3.05-2.334-2.783-4.094c-0.009-0.166-0.009-0.334,0.007-0.504
		c0.408-4.523,1.007-9.024,1.77-13.501c0.418-2.448,3.384-3.801,5.601-3.193c0.722,0.2,1.321,0.539,1.803,0.975
		c0.164,0.111,0.315,0.244,0.443,0.409c2.686,3.458,5.632,6.676,8.846,9.65c1.699,1.572,0.566,3.779-1.128,4.374
		c0.674,0.004,1.349,0.008,2.023,0.01c0.208,0.002,0.401,0.024,0.587,0.059C39.981,27.534,42.024,29.005,41.352,31.325z
		 M33.758,27.616c-0.31-0.117-0.615-0.302-0.904-0.57c-1.666-1.54-3.257-3.15-4.78-4.822c-0.242,1.75-0.449,3.504-0.627,5.264
		C29.55,27.565,31.655,27.598,33.758,27.616z M25.907,10.46c2.888,0,5.23-2.342,5.23-5.23S28.795,0,25.907,0s-5.23,2.342-5.23,5.23
		C20.677,8.118,23.019,10.46,25.907,10.46z"/>
</g>
<g>
</g>
<g>
</g>
<g>
</g>
<g>
</g>
<g>
</g>
<g>
</g>
<g>
</g>
<g>
</g>
<g>
</g>
<g>
</g>
<g>
</g>
<g>
</g>
<g>
</g>
<g>
</g>
<g>
</g>
</svg>
