<?xml version="1.0" encoding="iso-8859-1"?>
<!-- Generator: Adobe Illustrator 16.0.0, SVG Export Plug-In . SVG Version: 6.00 Build 0)  -->
<!DOCTYPE svg PUBLIC "-//W3C//DTD SVG 1.1//EN" "http://www.w3.org/Graphics/SVG/1.1/DTD/svg11.dtd">
<svg version="1.1" id="Capa_1" xmlns="http://www.w3.org/2000/svg" xmlns:xlink="http://www.w3.org/1999/xlink" x="0px" y="0px"
	 width="99.125px" height="99.124px" viewBox="0 0 99.125 99.124" style="enable-background:new 0 0 99.125 99.124;"
	 xml:space="preserve">
<g>
	<g>
		<path d="M89.827,76.312H2c-0.635,0-1.232,0.301-1.609,0.812s-0.49,1.17-0.303,1.776c1.146,3.724,4.531,6.226,8.428,6.226h74.795
			c3.896,0,7.279-2.502,8.426-6.226c0.188-0.606,0.074-1.267-0.303-1.776C91.058,76.612,90.46,76.312,89.827,76.312z"/>
		<path d="M80.599,16.197c-0.521,0-1.061,0.027-1.701,0.086v-0.284c0-1.104-0.895-2-2-2h-61.86c-1.104,0-2,0.896-2,2V65.17
			c0,4.319,3.516,7.834,7.836,7.834h50.19c4.32,0,7.834-3.515,7.834-7.834V53.164c0.64,0.06,1.181,0.086,1.701,0.086
			c12.293,0,18.525-6.233,18.525-18.526C99.125,23.123,92.2,16.197,80.599,16.197z M80.599,43.456c-0.561,0-1.133-0.057-1.701-0.169
			V26.159H78.9c0.566-0.112,1.14-0.168,1.699-0.168c6.201,0,8.732,2.53,8.732,8.733C89.333,42.137,87.042,43.456,80.599,43.456z"/>
	</g>
</g>
<g>
</g>
<g>
</g>
<g>
</g>
<g>
</g>
<g>
</g>
<g>
</g>
<g>
</g>
<g>
</g>
<g>
</g>
<g>
</g>
<g>
</g>
<g>
</g>
<g>
</g>
<g>
</g>
<g>
</g>
</svg>
